<svg version="1.1" id="Layer_1" xmlns="http://www.w3.org/2000/svg" xmlns:xlink="http://www.w3.org/1999/xlink" x="0px" y="0px" width="100%" viewBox="0 0 1024 1024" enable-background="new 0 0 1024 1024" xml:space="preserve">
<path fill="#000000" opacity="1.000000" stroke="none" d="
M800.618774,885.628296 
	C773.317932,911.750122 741.567932,929.859436 706.549500,942.535767 
	C685.222046,950.256042 663.274963,955.619507 640.764465,958.171265 
	C594.796570,963.382263 551.308533,955.400757 510.922974,932.323364 
	C478.241638,913.648315 446.915039,892.743408 414.513397,873.602234 
	C400.462769,865.301880 385.740387,858.174744 372.096008,849.174011 
	C356.045837,838.586365 344.721893,823.940552 336.517395,806.846069 
	C320.427673,773.322205 301.353943,741.459839 283.018799,709.171448 
	C273.163879,691.816772 264.464508,673.805969 255.266342,656.079468 
	C255.149750,655.854736 255.332153,655.474915 255.378296,655.143738 
	C256.773621,654.292786 257.527649,655.511169 258.383087,656.145203 
	C278.310089,670.911438 300.789032,679.429138 325.072937,683.698242 
	C341.710785,686.623108 358.506226,687.453552 375.273315,686.524780 
	C410.663574,684.564331 444.006500,676.054016 471.762726,652.444458 
	C494.355316,633.227112 507.959137,608.832947 511.692841,579.292297 
	C514.446228,557.507629 513.328125,536.180786 503.066681,516.063110 
	C492.411957,495.174469 475.789734,480.617645 455.161835,470.286682 
	C432.730499,459.052521 408.491974,452.838074 384.734283,445.295441 
	C367.317383,439.765930 349.427795,435.756989 332.329163,429.226318 
	C319.448914,424.306763 309.315155,416.347626 305.680145,402.306000 
	C300.440918,382.067230 308.324615,360.892944 329.776062,353.140808 
	C353.250885,344.657501 376.801880,345.167328 399.713898,355.349365 
	C414.307068,361.834595 422.052826,373.886444 424.235107,389.429230 
	C424.906647,394.212372 426.641174,395.798340 431.519684,395.740875 
	C453.015869,395.487579 474.516571,395.624390 496.015656,395.617157 
	C504.448059,395.614349 504.402985,395.614899 503.710693,387.238892 
	C502.322266,370.440491 497.786133,354.534668 489.661438,339.786865 
	C472.931305,309.418640 445.949249,292.722137 413.571228,283.365814 
	C393.181183,277.473663 372.258850,276.116760 351.299164,277.538757 
	C321.221130,279.579376 293.060822,288.017426 268.757935,306.658356 
	C253.124405,318.649689 241.584503,333.991974 233.496017,351.943481 
	C232.853363,353.369751 232.686508,355.191986 230.549271,355.719391 
	C236.139435,325.947144 248.162415,300.971558 277.827881,288.160645 
	C284.121857,285.442596 289.339600,280.710663 294.328217,276.132874 
	C313.223724,258.793365 336.529175,251.239273 360.701569,245.710800 
	C398.135040,237.149399 436.233337,237.039337 474.334290,237.709824 
	C501.299927,238.184341 528.260071,239.013245 555.219055,239.807205 
	C572.017822,240.301956 588.817993,241.670517 605.602539,241.459702 
	C621.233398,241.263382 636.841858,239.476929 650.921753,231.518875 
	C668.806213,221.410461 679.313171,206.336884 681.666931,185.785843 
	C681.723694,185.289795 681.700867,184.781235 681.793091,184.293213 
	C682.221802,182.023346 682.677856,179.758652 683.168152,177.268478 
	C685.440857,176.665390 687.365845,177.758820 689.323914,178.450134 
	C713.107178,186.846817 735.410461,198.498734 757.872559,209.778763 
	C784.359192,223.079865 810.537720,237.018738 837.307129,249.717087 
	C844.894104,253.316071 848.527405,257.122559 849.915222,265.573914 
	C855.233765,297.962006 861.493042,330.195892 867.427368,362.482513 
	C872.612244,390.691589 877.875854,418.886230 883.024780,447.101837 
	C888.174133,475.320435 893.164917,503.568024 898.350159,531.779907 
	C900.178528,541.727722 902.185547,551.652466 904.501587,561.495850 
	C905.387878,565.262329 905.074768,568.648682 904.040649,572.230042 
	C888.922424,624.584534 873.880310,676.960999 858.756104,729.313782 
	C847.691467,767.614258 836.720276,805.943481 825.326111,844.146179 
	C820.653870,859.811279 812.763306,873.857422 800.618774,885.628296 
M634.349670,592.499939 
	C634.348816,618.163208 634.419800,643.826965 634.272522,669.489380 
	C634.249512,673.501282 635.405823,675.080750 639.570129,675.216187 
	C662.894165,675.975037 686.218872,675.603149 709.540283,675.381348 
	C716.638977,675.313843 716.650391,674.888306 716.650696,667.860229 
	C716.655212,567.537415 716.648193,467.214569 716.668579,366.891724 
	C716.670471,357.808258 715.856628,358.671173 725.103088,358.661255 
	C756.433167,358.627686 787.763367,358.593109 819.093018,358.712708 
	C823.070374,358.727905 824.760010,357.715118 824.728027,353.404694 
	C824.570007,332.074860 824.589050,310.742462 824.752930,289.412567 
	C824.784241,285.336609 823.153442,284.322571 819.414124,284.325195 
	C723.924194,284.391876 628.434204,284.375305 532.944214,284.400696 
	C527.063477,284.402252 526.363464,285.171997 526.357056,291.077728 
	C526.334778,311.575592 526.488281,332.075134 526.241150,352.570038 
	C526.182739,357.416779 527.660400,358.776459 532.454102,358.747101 
	C563.783020,358.555176 595.113586,358.647766 626.443665,358.653656 
	C634.314880,358.655151 634.338806,358.665710 634.339661,366.523407 
	C634.348145,441.515564 634.347900,516.507690 634.349670,592.499939 
z" data-index="0" style="opacity: 1;"></path>
<path fill="#000000" opacity="1.000000" stroke="none" d="
M248.227081,154.302002 
	C227.481033,166.389450 206.925446,178.067429 188.159271,192.613327 
	C151.431488,221.081528 126.297157,257.424347 113.538986,302.127533 
	C105.881287,328.959198 96.600845,355.343048 91.031441,382.756866 
	C87.958847,397.880829 85.757477,413.116455 84.239632,428.492981 
	C80.333366,468.065430 82.407516,507.718536 82.598770,547.319641 
	C82.735741,575.681580 93.183945,601.596558 106.168266,626.423035 
	C122.547997,657.741638 141.038086,687.831177 160.613968,717.215332 
	C187.946259,758.242004 210.858200,801.556641 230.469040,846.742249 
	C240.873367,870.714966 251.622604,894.578430 265.371552,916.921143 
	C273.207001,929.654175 282.703003,940.940308 294.216431,950.503967 
	C295.090179,951.229736 296.234253,951.753357 296.193665,954.419800 
	C232.156845,920.724915 175.701263,878.742065 130.313126,822.539368 
	C85.121399,766.579834 51.669758,704.451111 33.960522,634.703369 
	C-14.954098,442.053406 58.918968,229.233627 223.206390,111.376556 
	C378.135132,0.233208 563.859436,4.467307 672.777466,46.991058 
	C662.477722,49.056507 652.917603,50.949207 643.367798,52.893055 
	C607.863831,60.119884 573.075989,70.264778 537.899292,78.827583 
	C504.491516,86.959808 471.591644,97.094765 438.036407,104.634056 
	C416.829010,109.398994 395.914307,115.543961 374.352570,118.655365 
	C366.310181,119.815903 358.173615,121.224174 350.102325,121.097305 
	C332.935272,120.827477 316.944702,125.699524 300.983368,130.882538 
	C282.718689,136.813492 265.367004,144.888123 248.227081,154.302002 
z" data-index="1"></path>
<path fill="#000000" opacity="1.000000" stroke="none" d="
M267.281616,485.686584 
	C286.223602,498.086395 307.204651,504.512207 328.321960,510.660095 
	C353.357178,517.948669 378.739471,524.127441 403.058289,533.733704 
	C409.270264,536.187439 415.362518,538.972595 420.430298,543.409668 
	C434.413879,555.652893 435.452332,581.381409 422.980225,596.072144 
	C412.185669,608.786987 398.099060,614.399719 382.043793,616.379578 
	C366.555634,618.289551 351.194153,617.806763 335.987244,614.273804 
	C312.735870,608.871826 299.197662,594.142883 294.693939,570.861328 
	C294.410522,569.396423 294.014771,567.950928 293.781403,566.478943 
	C292.326538,557.302979 292.336945,557.270325 283.254456,557.263123 
	C261.761475,557.246094 240.268143,557.200256 218.775803,557.320557 
	C214.918762,557.342163 212.662613,556.784912 212.391022,552.104370 
	C211.795654,541.844482 210.402878,531.632874 209.705826,521.376404 
	C209.006699,511.089508 208.080688,500.779449 208.729904,490.457672 
	C210.540970,461.663666 210.524323,432.629608 219.573944,404.748352 
	C220.072845,403.211334 220.541504,401.664490 221.645630,399.936859 
	C223.241379,435.776306 235.813309,465.613617 267.281616,485.686584 
z" data-index="2" style="opacity: 1;"></path>

<path fill="#000000" opacity="1.000000" stroke="none" d="
M619.142395,1008.997498 
	C594.944214,1013.685791 570.848389,1013.903687 546.741760,1013.213684 
	C539.263611,1012.999695 531.648926,1012.801697 524.319458,1010.458557 
	C598.640686,1006.941406 671.298462,995.716980 741.321594,964.869629 
	C738.706909,968.577576 735.902039,969.321899 733.494019,970.481689 
	C702.533264,985.394470 670.333374,996.891541 636.986145,1005.161072 
	C631.210327,1006.593384 625.341492,1007.650696 619.142395,1008.997498 
z" data-index="4" style="visibility: hidden;"></path>
</svg>